<?xml version="1.0" encoding="utf-8"?>
<!-- Generator: Adobe Illustrator 25.0.1, SVG Export Plug-In . SVG Version: 6.00 Build 0)  -->
<svg version="1.1" id="Layer_1" xmlns="http://www.w3.org/2000/svg" xmlns:xlink="http://www.w3.org/1999/xlink" x="0px" y="0px"
	 viewBox="0 0 425.2 425.2" style="enable-background:new 0 0 425.2 425.2;" xml:space="preserve">
<style type="text/css">
	.st0{fill:#FFFFFF;}
	.st1{fill:#466A38;}
</style>
<g>
	<rect x="92.49" y="128.53" class="st0" width="240.6" height="168.58"/>
	<g>
		<path class="st1" d="M194.29,170.95h-8.27v12.25h8.04c3.99,0,5.41-3.15,5.41-6.1C199.47,174.27,198.12,170.95,194.29,170.95z"/>
		<path class="st1" d="M371.62,112.92c-27.1-4.74-104.8-10.1-158.79-10.18v0c-0.01,0-0.03,0-0.04,0c-0.02,0-0.03,0-0.04,0v0
			c-53.98,0.07-135.38,5.44-158.79,10.18c-22.5,3.75-39.6,16.84-39.6,44.19v55.62v0.18v55.62c0,27.35,17.1,40.45,39.6,44.19
			c31.5,5.18,104.8,10.1,158.79,10.18v0c0.02,0,0.03,0,0.04,0c0.01,0,0.03,0,0.04,0v0c53.98-0.07,127.85-4.79,158.79-10.18
			c22.5-3.75,39.6-16.84,39.6-44.19v-55.62v-0.18v-55.62C411.22,129.76,394.12,116.66,371.62,112.92z M256.75,164.57
			c0-0.43,0.35-0.77,0.77-0.77h23.76c0.43,0,0.77,0.35,0.77,0.77v5.61c0,0.43-0.35,0.77-0.77,0.77h-16.92v10.13h14.69
			c0.43,0,0.77,0.35,0.77,0.77v5.55c0,0.43-0.35,0.77-0.77,0.77h-14.69v9.5h17.49c0.43,0,0.77,0.35,0.77,0.77v5.55
			c0,0.43-0.35,0.77-0.77,0.77h-24.33c-0.43,0-0.77-0.35-0.77-0.77V164.57z M219.09,164.57c0-0.43,0.35-0.77,0.77-0.77h23.76
			c0.43,0,0.77,0.35,0.77,0.77v5.61c0,0.43-0.35,0.77-0.77,0.77H226.7v10.13h14.69c0.43,0,0.77,0.35,0.77,0.77v5.55
			c0,0.43-0.35,0.77-0.77,0.77H226.7v9.5h17.49c0.43,0,0.77,0.35,0.77,0.77v5.55c0,0.43-0.35,0.77-0.77,0.77h-24.33
			c-0.43,0-0.77-0.35-0.77-0.77V164.57z M70.79,246.03c0,5.31-4.34,9.65-9.65,9.65c-5.31,0-9.65-4.34-9.65-9.65v-66.42
			c0-5.31,4.34-9.65,9.65-9.65c5.31,0,9.65,4.34,9.65,9.65V246.03z M128.03,184.38c0-11.8,9.12-21.04,20.75-21.04
			c5.49,0,10.56,2.05,14.29,5.78c0.15,0.15,0.23,0.36,0.23,0.57c-0.01,0.21-0.1,0.41-0.26,0.56l-4.47,3.95
			c-0.3,0.26-0.76,0.26-1.04-0.02c-2.38-2.26-5.48-3.51-8.74-3.51c-7.37,0-13.14,6.02-13.14,13.71c0,7.69,5.77,13.71,13.14,13.71
			c5.94,0,10.34-3.3,11-8.13h-9.26c-2.1,0-3.81-1.7-3.81-3.81v-2.18c0-0.43,0.35-0.77,0.77-0.77h20.12c0.42,0,0.77,0.35,0.77,0.77
			c0,13.59-7.15,21.39-19.61,21.39C137.15,205.36,128.03,196.15,128.03,184.38z M186.75,254.73c-3.7,4.81-9.52,7.57-15.96,7.57
			c-11.61,0-20.7-9.22-20.7-20.98c0-11.8,9.09-21.04,20.7-21.04c6.29,0,12.06,2.69,15.83,7.39c0.13,0.16,0.19,0.37,0.16,0.57
			c-0.02,0.21-0.13,0.39-0.29,0.52l-4.69,3.66c-0.32,0.25-0.78,0.21-1.06-0.1c-2.65-3.01-6.19-4.66-9.95-4.66
			c-7.33,0-13.08,6-13.08,13.65c0,7.62,5.75,13.6,13.08,13.6c3.97,0,7.63-1.77,10.04-4.86c0.13-0.16,0.31-0.27,0.52-0.29
			c0.21-0.03,0.41,0.03,0.57,0.16l4.69,3.72C186.95,253.92,187.01,254.39,186.75,254.73z M186.02,190.3v13.71
			c0,0.43-0.35,0.77-0.77,0.77h-6.13c-0.43,0-0.77-0.35-0.77-0.77v-39.45c0-0.43,0.35-0.77,0.77-0.77h15.4
			c9.44,0,12.8,7.17,12.8,13.31c0,5.38-2.55,11.38-9.61,12.77l9.64,13.69c0.17,0.24,0.19,0.54,0.05,0.8
			c-0.13,0.26-0.4,0.42-0.69,0.42h-7.39c-0.26,0-0.5-0.13-0.64-0.34l-9.62-14.15H186.02z M227.49,260.96c0,0.43-0.35,0.77-0.77,0.77
			h-6.18c-0.43,0-0.77-0.35-0.77-0.77V244.9h-16.26v16.06c0,0.43-0.35,0.77-0.77,0.77h-6.07c-0.43,0-0.77-0.35-0.77-0.77v-39.45
			c0-0.43,0.35-0.77,0.77-0.77h6.07c0.43,0,0.77,0.35,0.77,0.77v16.29h16.26v-16.29c0-0.43,0.35-0.77,0.77-0.77h6.18
			c0.43,0,0.77,0.35,0.77,0.77V260.96z M265.99,260.96c0,0.43-0.35,0.77-0.77,0.77h-24.33c-0.43,0-0.77-0.35-0.77-0.77v-39.45
			c0-0.43,0.35-0.77,0.77-0.77h23.76c0.43,0,0.77,0.35,0.77,0.77v5.61c0,0.43-0.35,0.77-0.77,0.77h-16.92v10.13h14.69
			c0.43,0,0.77,0.35,0.77,0.77v5.55c0,0.43-0.35,0.77-0.77,0.77h-14.69v9.5h17.49c0.43,0,0.77,0.35,0.77,0.77V260.96z
			 M302.45,227.12c0,0.43-0.35,0.77-0.77,0.77h-16.57v10.13h12.97c0.43,0,0.77,0.35,0.77,0.77v5.55c0,0.43-0.35,0.77-0.77,0.77
			h-12.97v15.83c0,0.43-0.35,0.77-0.77,0.77h-6.4c-0.43,0-0.77-0.35-0.77-0.77v-39.45c0-0.43,0.35-0.77,0.77-0.77h23.75
			c0.43,0,0.77,0.35,0.77,0.77V227.12z M324.71,204.02c0,0.43-0.35,0.77-0.77,0.77h-5.67c-0.27,0-0.52-0.14-0.66-0.37l-15.51-25.83
			v25.44c0,0.43-0.35,0.77-0.77,0.77h-6.07c-0.43,0-0.77-0.35-0.77-0.77v-39.45c0-0.43,0.35-0.77,0.77-0.77h5.84
			c0.27,0,0.52,0.14,0.66,0.38l15.34,25.6v-25.2c0-0.43,0.35-0.77,0.77-0.77h6.07c0.43,0,0.77,0.35,0.77,0.77V204.02z"/>
	</g>
</g>
</svg>
